<svg width="35" height="39" viewBox="0 0 35 39" fill="none" xmlns="http://www.w3.org/2000/svg">
<path fill-rule="evenodd" clip-rule="evenodd" d="M3.59754 10.4608L3.47073 10.4471C3.00925 10.4298 2.59483 10.7657 2.51389 11.2471L2.50062 11.3776C2.48375 11.8526 2.8101 12.2791 3.27777 12.3624L5.16403 12.6982L6.30719 26.7168L6.33085 26.9275C6.56085 28.526 7.89666 29.7278 9.48765 29.7278H23.1277L23.3331 29.7211C24.8285 29.6228 26.0684 28.4588 26.2867 26.9125L27.473 18.4744L27.4935 18.2805C27.6026 16.7378 26.4153 15.3988 24.8864 15.3988H7.26528L6.97187 11.7941L6.94975 11.6515C6.8642 11.2805 6.57122 10.9905 6.19754 10.924L3.59754 10.4608ZM9.34255 27.7898C8.72346 27.72 8.22836 27.2083 8.17548 26.5559L7.4226 17.3287H24.8862L24.9964 17.3371C25.3911 17.3975 25.6762 17.7774 25.6171 18.198L24.4309 26.6356L24.4011 26.7864C24.2507 27.3764 23.7314 27.7979 23.1275 27.7979H9.48747L9.34255 27.7898ZM7.38557 33.7154C7.38557 32.6397 8.23267 31.7662 9.27807 31.7662C10.3233 31.7662 11.1718 32.6395 11.1718 33.7154C11.1718 34.7914 10.3232 35.6633 9.27807 35.6633C8.23281 35.6633 7.38557 34.7913 7.38557 33.7154ZM21.45 33.7154C21.45 32.6395 22.2984 31.7662 23.3437 31.7662C24.389 31.7662 25.2375 32.6395 25.2375 33.7154C25.2375 34.7914 24.3888 35.6633 23.3437 35.6633C22.2986 35.6633 21.45 34.7914 21.45 33.7154ZM22.0606 21.1191C22.0606 20.5862 21.6409 20.1541 21.1231 20.1541H17.6569L17.5297 20.1629C17.0721 20.2268 16.7194 20.6306 16.7194 21.1191C16.7194 21.652 17.1391 22.0841 17.6569 22.0841H21.1231L21.2503 22.0752C21.7079 22.0113 22.0606 21.6076 22.0606 21.1191Z" fill="#333333"/>
<circle cx="25" cy="10" r="10" fill="#06D10E"/>
<path d="M28.1999 12.68V14H22.0079V12.956L25.3439 9.788C25.7199 9.428 25.9719 9.116 26.0999 8.852C26.2359 8.58 26.3039 8.312 26.3039 8.048C26.3039 7.656 26.1719 7.356 25.9079 7.148C25.6439 6.94 25.2559 6.836 24.7439 6.836C23.8879 6.836 23.2319 7.128 22.7759 7.712L21.6839 6.872C22.0119 6.432 22.4519 6.092 23.0039 5.852C23.5639 5.604 24.1879 5.48 24.8759 5.48C25.7879 5.48 26.5159 5.696 27.0599 6.128C27.6039 6.56 27.8759 7.148 27.8759 7.892C27.8759 8.348 27.7799 8.776 27.5879 9.176C27.3959 9.576 27.0279 10.032 26.4839 10.544L24.2399 12.68H28.1999Z" fill="white"/>
</svg>
